<?xml version="1.0" encoding="UTF-8"?>
<svg id="Layer_1" data-name="Layer 1" xmlns="http://www.w3.org/2000/svg" viewBox="0 0 492.56 492.56">
  <defs>
    <style>
      .cls-1 {
        fill: #ffafaf;
        opacity: .5;
      }

      .cls-2 {
        fill: #fff;
      }

      .cls-3 {
        fill: #367ecb;
      }

      .cls-4 {
        fill: #0f2330;
      }
    </style>
  </defs>
  <path class="cls-2" d="M443.09,379.14c4.04-39.17,7.95-81.71-1.39-123.51-28.14-125.94-100.35-245.16-134.44-245.16s-53,59.87-58.69,80.17l-18.5-45.96s-57.39,3.93-102.61,34.98c-4.72,3.24-9.32,9.02-13.78,16.72l1.57-8.38c-25.39,45.31-49.91,105.66-63.76,167.63-13.18,58.97-2.3,119.42.42,169.79l1.58-8.43"/>
  <g>
    <path class="cls-4" d="M53.67,425.34c-3.25.18-6.02-2.31-6.23-5.57-.64-9.87-1.53-20.07-2.47-30.76-3.63-41.46-7.75-88.45,2.49-134.28,12.8-57.3,36.2-118.8,64.19-168.74l7.2,4.04c-27.61,49.27-50.7,109.96-63.33,166.51-9.96,44.58-5.91,90.89-2.33,131.75,1.13,12.9,2.2,25.09,2.83,36.92l-2.36.13Z"/>
    <g>
      <g>
        <path class="cls-2" d="M438.96,425.43c2.71-50.37,15.92-110.82,2.74-169.79-28.14-125.94-100.35-245.16-134.44-245.16-40.22,0-60.44,86.82-60.44,86.82"/>
        <path class="cls-4" d="M438.97,425.43c-.09,0-.17,0-.26,0-2.27-.14-3.98-2.15-3.86-4.43.73-13.42,2.16-23.19,3.69-37.92,4.07-39.3,8.68-83.84-.86-126.54-12.85-57.52-36.38-119-64.55-168.67-25.24-44.51-51.09-73.26-65.85-73.26-36.49,0-56.22,82.79-56.41,83.63-.52,2.22-2.73,3.62-4.96,3.08-2.22-.52-3.6-2.74-3.08-4.96.86-3.68,21.46-90.01,64.46-90.01,8.76,0,33.4,7.55,73.04,77.44,28.56,50.35,52.4,112.66,65.43,170.94,9.83,44.01,5.15,89.27,1.02,129.2-1.52,14.65-2.95,24.35-3.66,37.59-.12,2.2-1.94,3.91-4.12,3.91Z"/>
      </g>
      <g>
        <path class="cls-4" d="M200.81,231.75c0,1.43-.03,2.84-.2,4.18-.17,1.43-.56,2.79-.89,4.09-.37,1.41-.69,2.8-1.22,4.01-.6,1.35-1.65,2.36-2.42,3.41-.89,1.21-1.74,2.29-2.82,2.99-1.22.79-2.53,1.16-3.9,1.16-1.38,0-2.73-.31-3.95-1.1-1.08-.7-1.97-1.78-2.86-2.99-.77-1.04-1.57-2.18-2.17-3.54-.53-1.21-1.06-2.51-1.42-3.92-.34-1.3-.66-2.67-.83-4.1-.16-1.34-.21-2.75-.21-4.18s.23-2.81.39-4.15c.17-1.43.31-2.83.64-4.12.37-1.41,1.11-2.62,1.64-3.83.6-1.35.96-2.76,1.73-3.8.89-1.21,2.1-1.98,3.18-2.68,1.22-.79,2.47-1.19,3.85-1.19s2.74.23,3.96,1.02c1.08.7,1.85,1.88,2.74,3.09.77,1.04,1.75,2.07,2.34,3.43.53,1.21.95,2.56,1.31,3.96.34,1.3.72,2.66.89,4.09.16,1.34.21,2.75.21,4.18Z"/>
        <path class="cls-4" d="M189.35,252.78c-2.78,0-5.53-1.64-7.73-4.62-1.45-1.96-2.58-4.56-3.46-7.94-.7-2.7-1.05-5.55-1.05-8.48,0-2.71.06-5.83.77-8.56.83-3.18,2.06-5.95,3.58-7.99,2.04-2.75,4.91-4.33,7.9-4.33s5.73,1.56,7.82,4.39c1.66,2.24,2.93,4.97,3.7,7.92.69,2.66.75,5.69.75,8.57s-.06,5.85-.76,8.57c-.85,3.28-2.55,5.86-3.94,7.73-2.33,3.14-4.87,4.74-7.56,4.74ZM189.35,212.94c-2.36,0-4.57,1.24-6.24,3.49-1.36,1.83-2.48,4.35-3.24,7.28-.65,2.49-.7,5.46-.7,8.04,0,2.76.33,5.44.99,7.96.8,3.08,1.85,5.51,3.12,7.23,1.8,2.44,3.96,3.78,6.07,3.78,2,0,3.99-1.31,5.9-3.9,1.28-1.72,2.84-4.08,3.6-7.02.64-2.48.7-5.34.7-8.05,0-2.86-.05-5.62-.68-8.05-.69-2.65-1.88-5.21-3.36-7.21-1.69-2.29-3.88-3.55-6.16-3.55Z"/>
      </g>
      <g>
        <path class="cls-4" d="M317.58,231.75c0,1.43-.1,2.83-.26,4.17-.17,1.43-.61,2.76-.94,4.06-.37,1.41-.94,2.66-1.48,3.87-.6,1.35-1.18,2.59-1.96,3.63-.89,1.21-1.67,2.46-2.74,3.16-1.22.79-2.67,1.04-4.05,1.04s-2.71-.43-3.93-1.22c-1.08-.7-1.97-1.77-2.87-2.98-.77-1.04-1.65-2.15-2.25-3.5-.53-1.21-.85-2.58-1.21-3.99-.34-1.3-.79-2.64-.96-4.06-.16-1.34.09-2.75.09-4.18s-.11-2.82.05-4.16c.17-1.43.39-2.81.72-4.1.37-1.41.79-2.75,1.33-3.96.6-1.35,1.3-2.58,2.07-3.63.89-1.21,1.83-2.34,2.91-3.04,1.22-.79,2.66-1,4.04-1s2.57.6,3.79,1.39c1.08.7,2.04,1.61,2.93,2.82.77,1.04,1.46,2.21,2.06,3.56.53,1.21,1.14,2.46,1.51,3.86.34,1.3.62,2.66.79,4.09.16,1.34.35,2.73.35,4.16Z"/>
        <path class="cls-4" d="M306.16,252.48c-2.85,0-5.39-1.49-7.57-4.43-1.69-2.29-2.93-4.91-3.68-7.81-.61-2.35-.89-5.05-.89-8.49v-.74c0-2.78-.01-5.4.62-7.83.84-3.25,2.56-5.84,3.96-7.73,2.18-2.95,4.73-4.44,7.56-4.44s5.6,1.5,7.7,4.34c1.45,1.96,2.62,4.63,3.47,7.92.58,2.23,1.24,5.21,1.24,8.48s-.32,6.13-.95,8.56c-.72,2.76-2.02,5.47-3.77,7.84-2.1,2.83-4.76,4.33-7.7,4.33ZM306.16,213.07c-2.18,0-4.11,1.18-5.9,3.61-1.29,1.74-2.86,4.11-3.62,7.02-.56,2.17-.56,4.67-.55,7.31v.74c0,3.26.26,5.8.83,7.98.68,2.63,1.81,5.02,3.34,7.1,1.79,2.42,3.72,3.59,5.91,3.59s4.34-1.21,6.04-3.5c1.6-2.16,2.78-4.62,3.43-7.13.59-2.26.88-4.97.88-8.04s-.63-5.85-1.18-7.96c-.79-3.04-1.84-5.47-3.13-7.21-1.7-2.29-3.79-3.5-6.05-3.5Z"/>
      </g>
      <g>
        <path class="cls-2" d="M247.74,265.29c.47,12.59-10.39,23.25-24.26,23.81-10.67.43-20-2.59-23.96-10.96"/>
        <path class="cls-4" d="M221.56,293.26c-12.57,0-21.67-4.7-25.77-13.36-.97-2.06-.09-4.52,1.97-5.5,2.06-.98,4.52-.09,5.5,1.97,3.61,7.62,12.9,8.87,20.06,8.6,11.58-.46,20.68-9.22,20.29-19.52-.09-2.28,1.69-4.2,3.97-4.28,2.25-.11,4.2,1.69,4.28,3.97.55,14.84-12.1,27.44-28.22,28.08-.71.03-1.4.04-2.09.04Z"/>
      </g>
      <g>
        <path class="cls-2" d="M247.77,265.29c-.47,12.59,10.39,23.25,24.26,23.81,10.67.43,20-2.59,23.96-10.96"/>
        <path class="cls-4" d="M273.95,293.26c-.69,0-1.38-.01-2.09-.04-16.12-.64-28.77-13.24-28.22-28.09.09-2.28,2.02-4.08,4.28-3.97,2.28.09,4.06,2,3.97,4.28-.39,10.3,8.72,19.06,20.29,19.52,7.18.27,16.46-.98,20.06-8.6.97-2.06,3.43-2.94,5.5-1.97,2.06.98,2.94,3.44,1.97,5.5-4.09,8.66-13.2,13.36-25.77,13.36Z"/>
      </g>
      <path class="cls-4" d="M235.75,239.74h23.17c3.88,0,7.03,3.15,7.03,7.03v.84c0,9.76-7.92,17.68-17.68,17.68h-1.86c-9.76,0-17.68-7.92-17.68-17.68v-.84c0-3.88,3.15-7.03,7.03-7.03Z"/>
      <g>
        <polygon class="cls-3" points="49.01 382.61 256.62 406.39 256.62 430.97 51.5 421.58 49.01 382.61"/>
        <path class="cls-4" d="M256.62,435.1c-.06,0-.13,0-.19,0l-205.12-9.39c-2.1-.1-3.8-1.76-3.93-3.86l-2.49-38.97c-.08-1.22.39-2.41,1.28-3.25.89-.84,2.1-1.25,3.32-1.11l207.61,23.78c2.08.24,3.66,2,3.66,4.1v24.58c0,1.13-.46,2.21-1.28,2.99-.77.74-1.79,1.14-2.85,1.14ZM55.38,417.62l197.11,9.02v-16.57l-199.04-22.8,1.94,30.35Z"/>
      </g>
      <g>
        <polygon class="cls-3" points="441.82 382.77 236.32 404.61 250.03 430.31 439.18 421.67 441.82 382.77"/>
        <path class="cls-4" d="M250.03,434.44c-1.52,0-2.92-.84-3.64-2.19l-13.71-25.7c-.65-1.21-.65-2.67,0-3.88.64-1.21,1.85-2.03,3.21-2.17l205.5-21.84c1.21-.12,2.42.28,3.3,1.13.88.84,1.34,2.04,1.26,3.25l-2.64,38.9c-.14,2.09-1.83,3.75-3.93,3.85l-189.15,8.64c-.06,0-.13,0-.19,0ZM242.85,408.07l9.6,18,182.86-8.35,2.06-30.31-194.52,20.67Z"/>
      </g>
      <path class="cls-1" d="M139.53,146.55c-4.69-15.02,28.98-87.74,41.25-89.05,12.28-1.31,31.9,50.32,32.96,68.8.57,9.95-18.34,6.41-37.63,12-16.13,4.67-34.42,15.18-36.59,8.25Z"/>
      <path class="cls-1" d="M353.3,144.49c4.69-15.02-28.98-87.74-41.25-89.05-12.28-1.31-31.9,50.32-32.96,68.8-.57,9.95,18.34,6.41,37.63,12,16.13,4.67,34.42,15.18,36.59,8.25Z"/>
      <g>
        <polygon class="cls-3" points="319.69 472.84 259.6 409.77 230.92 406.62 287.45 483.63 319.69 472.84"/>
        <path class="cls-4" d="M287.45,487.76c-1.29,0-2.54-.6-3.33-1.69l-56.53-77.01c-.97-1.32-1.07-3.09-.25-4.51s2.4-2.22,4.03-2.04l28.69,3.15c.97.11,1.87.55,2.54,1.26l60.09,63.08c.97,1.02,1.36,2.47,1.02,3.85-.34,1.37-1.36,2.47-2.7,2.92l-32.24,10.79c-.43.15-.87.21-1.31.21ZM239.81,411.75l49.19,67.01,23.22-7.77-54.57-57.28-17.85-1.96Z"/>
      </g>
      <g>
        <path class="cls-3" d="M228.03,403.4l95.07,50.6,37.36-28.12s-33.3-1.42-50.96-7.95c-15.99-5.92-23.8-18.56-51.52-17.43l-29.95,2.9Z"/>
        <path class="cls-4" d="M323.1,458.13c-.66,0-1.33-.16-1.94-.48l-95.07-50.6c-1.61-.86-2.47-2.66-2.11-4.45.35-1.79,1.84-3.13,3.65-3.3l29.95-2.9c.08,0,.15-.01.23-.02,20.3-.86,30.98,5.52,40.39,11.14,4.17,2.48,8.1,4.83,12.73,6.54,16.84,6.23,49.37,7.69,49.7,7.7,1.74.07,3.25,1.23,3.77,2.9.52,1.67-.07,3.48-1.46,4.52l-37.36,28.12c-.73.55-1.61.83-2.48.83ZM242.06,406.19l80.66,42.93,26.39-19.86c-11.52-.99-29.36-3.13-41.05-7.45-5.34-1.98-9.79-4.63-14.09-7.2-9.22-5.5-17.93-10.7-35.71-9.98l-16.2,1.57Z"/>
      </g>
    </g>
    <g>
      <path class="cls-2" d="M228.9,49.04c11.64,23.19,17.47,48.25,17.47,48.25"/>
      <path class="cls-4" d="M246.37,101.42c-1.88,0-3.57-1.29-4.02-3.19-.06-.25-5.87-24.88-17.14-47.34-1.02-2.04-.2-4.52,1.84-5.54,2.04-1.02,4.52-.2,5.54,1.84,11.72,23.36,17.56,48.13,17.8,49.17.52,2.22-.86,4.44-3.08,4.96-.32.07-.63.11-.94.11Z"/>
    </g>
    <g>
      <path class="cls-2" d="M228.89,50c-1.37,46.87-39.39,73.96-55.91,76.75-22.96,3.88-49.5-16.73-57.78-40.26-5.45-15.5,114.7-70.97,113.69-36.49Z"/>
      <path class="cls-4" d="M167.13,131.37c-24.2,0-48.12-21.6-55.82-43.5-2.11-5.99,4.35-11.88,6.47-13.81,9.88-9.01,31.01-20.65,52.58-28.98,14.71-5.68,41.37-14.29,54.61-8.21,5.36,2.46,8.22,7.17,8.04,13.25h0c-1.48,50.6-42.5,77.86-59.35,80.7-2.17.37-4.36.54-6.54.54ZM119.17,85.31c7.37,20.67,31.58,41,53.13,37.37,14.4-2.43,51.15-27.66,52.47-72.8.06-2.02.18-6.22-9.32-6.79-30.26-1.79-94.95,33.32-96.28,42.22ZM228.89,50h.02-.02Z"/>
    </g>
  </g>
</svg>